<?xml version="1.0" standalone="no"?>
<!DOCTYPE svg PUBLIC "-//W3C//DTD SVG 20010904//EN"
 "http://www.w3.org/TR/2001/REC-SVG-20010904/DTD/svg10.dtd">
<svg version="1.0" xmlns="http://www.w3.org/2000/svg"
 width="2000.000000pt" height="2000.000000pt" viewBox="0 0 2000.000000 2000.000000"
 preserveAspectRatio="xMidYMid meet">

<g transform="translate(0.000000,2000.000000) scale(0.100000,-0.100000)"
fill="#000000" stroke="none">
<path d="M9315 17680 c-58 -30 -79 -63 -83 -137 -4 -55 -1 -69 21 -102 14 -21
41 -45 60 -54 51 -25 127 -22 168 6 39 26 79 97 79 142 0 17 -10 51 -22 75
-42 82 -139 112 -223 70z"/>
<path d="M13282 17613 c-125 -61 -132 -240 -13 -320 108 -73 253 -13 282 116
18 80 -25 171 -94 205 -44 20 -132 20 -175 -1z"/>
<path d="M9280 17214 c-25 -2 -108 -8 -185 -14 -1485 -113 -2920 -763 -3997
-1809 -705 -684 -1215 -1461 -1577 -2403 -32 -84 -87 -216 -121 -293 -266
-597 -449 -1270 -524 -1930 -55 -483 -55 -1022 0 -1515 135 -1219 637 -2428
1402 -3375 218 -270 292 -347 292 -304 0 6 7 9 14 6 27 -11 4 26 -68 108 -344
390 -677 887 -923 1380 -716 1430 -883 3093 -469 4648 38 142 175 567 161 497
-109 -522 -146 -797 -165 -1246 -11 -253 -3 -589 20 -839 60 -642 207 -1248
452 -1860 77 -191 292 -628 398 -810 211 -359 482 -734 738 -1022 63 -71 64
-72 88 -56 l24 15 -27 33 c-16 18 -75 89 -132 157 -349 412 -691 956 -917
1453 -660 1460 -762 3056 -292 4600 43 140 69 205 153 370 414 818 1026 1566
1757 2148 1002 797 2183 1276 3458 1402 197 19 741 43 729 31 -2 -2 -74 -16
-159 -30 -1555 -266 -2993 -1106 -4005 -2341 -1300 -1586 -1791 -3681 -1335
-5695 180 -796 535 -1601 1003 -2276 160 -232 192 -270 315 -380 117 -106 113
-98 65 -129 -7 -4 166 -175 177 -175 7 0 42 -22 79 -48 108 -80 447 -303 581
-384 724 -435 1554 -729 2410 -852 332 -48 516 -60 920 -60 403 0 579 11 925
60 1622 227 3116 1080 4150 2369 697 868 1155 1894 1343 3005 l10 55 1 -54 c2
-80 -26 -372 -55 -571 -223 -1566 -1008 -3003 -2209 -4046 -947 -822 -2130
-1363 -3365 -1538 -340 -49 -392 -51 -605 -27 -1072 121 -2058 485 -2963 1094
-150 100 -380 271 -476 353 -27 23 -43 31 -51 24 -7 -5 -14 -8 -16 -6 -2 2 -9
-2 -15 -8 -9 -10 13 -32 95 -98 885 -709 1872 -1159 2986 -1363 l180 -33 -160
-1 c-677 -4 -1481 141 -2165 391 -684 249 -1385 648 -1914 1086 -34 28 -53 38
-61 32 -7 -6 -14 -8 -16 -6 -2 2 -9 -2 -15 -8 -13 -14 94 -103 336 -283 1167
-863 2628 -1321 4075 -1277 154 4 325 8 380 7 742 -9 907 -7 1095 10 604 55
1167 178 1703 373 1093 397 2083 1088 2823 1972 846 1010 1367 2224 1514 3521
33 299 43 523 37 876 -7 425 -38 743 -113 1137 -24 129 -27 137 -45 127 -11
-5 -23 -8 -28 -5 -12 8 -10 -21 6 -99 122 -604 154 -1311 87 -1960 -186 -1812
-1130 -3476 -2599 -4580 -1027 -772 -2244 -1221 -3540 -1305 -206 -13 -506
-12 -425 2 721 122 1331 321 1950 634 1996 1009 3350 2955 3600 5173 37 333
42 496 37 1226 -4 633 -6 719 -26 895 -24 217 -60 454 -91 604 -11 54 -20 100
-20 103 0 2 -13 -3 -28 -13 l-28 -16 22 -117 c49 -250 106 -726 103 -857 l-1
-49 -9 45 c-4 25 -20 109 -35 187 -24 134 -27 142 -45 132 -11 -5 -23 -7 -28
-4 -12 7 -9 -23 28 -225 61 -343 98 -718 87 -885 -86 -1292 -582 -2560 -1400
-3580 -224 -280 -577 -644 -841 -869 -965 -823 -2111 -1332 -3360 -1495 -303
-40 -422 -46 -835 -46 -433 1 -580 10 -923 60 -1093 159 -2143 605 -3007 1275
-136 106 -205 182 -405 450 -1188 1593 -1590 3635 -1099 5575 53 210 188 621
267 815 544 1338 1496 2453 2727 3192 805 484 1693 784 2640 892 176 21 240
20 445 -4 1096 -130 2145 -535 3042 -1177 683 -488 1287 -1123 1733 -1822 232
-363 471 -837 606 -1203 16 -43 31 -78 34 -78 3 0 15 8 27 18 l22 17 -68 170
c-165 411 -318 714 -543 1073 -990 1583 -2613 2683 -4438 3007 -233 41 -234
44 -15 39 853 -21 1600 -171 2347 -473 269 -109 354 -152 468 -236 814 -605
1501 -1434 1946 -2350 86 -178 197 -434 239 -552 l18 -52 28 15 28 14 -25 67
c-373 992 -1015 1914 -1809 2602 -126 109 -167 147 -150 139 6 -3 78 -45 160
-94 739 -437 1418 -1050 1932 -1744 329 -444 629 -979 818 -1455 43 -110 80
-201 81 -203 1 -2 14 4 28 13 l25 17 -24 63 c-110 294 -315 725 -470 990 -647
1109 -1577 1991 -2715 2578 -96 50 -258 145 -360 212 -791 523 -1634 852
-2565 1004 -339 55 -550 72 -965 76 -201 1 -385 1 -410 -1z m775 -74 c978 -71
1915 -353 2745 -826 137 -78 221 -132 185 -119 -11 4 -94 34 -184 67 -509 184
-1071 309 -1651 365 -171 16 -735 24 -1060 14 -69 -2 -282 0 -475 4 -236 5
-410 4 -535 -4 -920 -58 -1785 -291 -2595 -701 -1035 -524 -1910 -1301 -2547
-2265 -66 -99 -122 -182 -125 -185 -27 -26 161 330 275 520 733 1223 1835
2163 3152 2690 601 240 1259 390 1925 439 162 12 728 12 890 1z"/>
<path d="M14215 16321 c-106 -27 -169 -108 -169 -216 0 -126 89 -217 214 -219
181 -2 285 193 185 346 -45 68 -152 109 -230 89z"/>
<path d="M3671 11498 c-113 -58 -111 -218 2 -277 38 -19 55 -22 92 -17 110 17
173 148 113 236 -53 77 -130 99 -207 58z"/>
<path d="M2512 10253 c-109 -53 -107 -220 3 -273 53 -26 80 -25 135 3 34 17
51 34 69 71 22 45 23 52 12 95 -7 25 -22 57 -34 70 -46 50 -124 64 -185 34z"/>
<path d="M2285 8926 c-68 -30 -112 -117 -96 -188 26 -112 144 -166 246 -112
59 31 87 84 82 157 -4 61 -22 95 -70 131 -33 25 -121 32 -162 12z"/>
<path d="M2450 7868 c-63 -32 -90 -77 -90 -148 0 -43 6 -65 23 -90 39 -58 71
-75 142 -75 71 0 103 17 143 75 31 46 31 134 -1 181 -26 39 -97 79 -142 79
-17 0 -51 -10 -75 -22z"/>
<path d="M3718 5625 c-36 -20 -48 -44 -48 -95 0 -33 6 -48 29 -71 79 -79 211
11 167 114 -7 18 -20 38 -29 45 -25 21 -88 24 -119 7z"/>
<path d="M4610 4220 c-31 -31 -27 -93 6 -119 37 -29 70 -26 105 8 34 35 37 68
8 105 -26 33 -88 37 -119 6z"/>
<path d="M5391 4164 c-47 -60 -10 -144 64 -144 49 0 85 36 85 85 0 50 -36 85
-89 85 -31 0 -44 -6 -60 -26z"/>
<path d="M6635 3529 c-113 -33 -128 -197 -23 -250 45 -23 77 -24 120 -3 46 22
71 59 75 113 8 96 -80 168 -172 140z"/>
<path d="M7744 3071 c-105 -27 -216 -119 -262 -218 -24 -51 -27 -70 -27 -158
0 -93 2 -105 32 -166 39 -80 111 -150 191 -187 50 -24 69 -27 162 -27 95 0
110 3 160 28 73 38 145 108 183 182 30 56 32 67 32 165 0 93 -3 111 -27 162
-37 79 -108 152 -185 190 -54 26 -78 32 -146 34 -45 2 -96 -1 -113 -5z"/>
</g>
</svg>
